PathFileType	4	(X/Y/Z)	TVC_26_BWA6_walk_RCNL2025.trc
DataRate	CameraRate	NumFrames	NumMarkers	Units	OrigDataRate	OrigDataStartFrame	OrigNumFrames
100	100	12	27	mm	100	442	588
Frame#	Time	R_Shoulder			L_Shoulder			C7			J_Notch			R_Elbow			L_Elbow			R_Wrist			L_Wrist			R_Asis			L_Asis			R_Psis			L_Psis			Sacral			Thoracic			Sternum			R_Thigh_Lateral			R_Knee_Lateral			R_Shank_Lateral			R_Ankle_Lateral			R_Heel			R_Toe			L_Thigh_Lateral			L_Knee_Lateral			L_Shank_Lateral			L_Ankle_Lateral			L_Heel			L_Toe		
		X1	Y1	Z1	X2	Y2	Z2	X3	Y3	Z3	X4	Y4	Z4	X5	Y5	Z5	X6	Y6	Z6	X7	Y7	Z7	X8	Y8	Z8	X9	Y9	Z9	X10	Y10	Z10	X11	Y11	Z11	X12	Y12	Z12	X13	Y13	Z13	X14	Y14	Z14	X15	Y15	Z15	X16	Y16	Z16	X17	Y17	Z17	X18	Y18	Z18	X19	Y19	Z19	X20	Y20	Z20	X21	Y21	Z21	X22	Y22	Z22	X23	Y23	Z23	X24	Y24	Z24	X25	Y25	Z25	X26	Y26	Z26	X27	Y27	Z27
442	4.41000000	1212.605713	1343.547729	84.278015	1229.133057	1362.103760	-237.157028	1141.942993	1386.288574	-73.149658	1294.312134	1299.196533	-65.432007	1213.007080	996.724976	185.948898	1215.273193	1034.892578	-348.095612	1273.435181	792.837830	225.532944	1322.211792	842.119202	-291.906860	1296.999146	947.021667	93.890709	1348.717529	952.345032	-196.392853	1103.408325	931.788635	-14.491292	1133.097778	932.294678	-157.745163	1118.253052	932.041656	-86.118227	1102.097656	1103.274292	-93.190262	1361.606689	1066.581177	-70.658485	1364.109497	571.191589	136.362213	1445.490479	472.447937	81.390617	1444.729736	294.003998	132.990173	1458.139893	88.975441	74.573845	1415.806152	61.723316	23.933456	1595.544067	75.080849	60.217682	1343.104858	573.955994	-227.475937	1297.381226	453.997253	-161.947754	1229.256470	244.370895	-198.847061	1139.805420	68.690926	-127.251350	1088.775513	59.219746	-76.925644	1271.666870	40.343853	-108.413574
443	4.42000000	1217.563477	1342.824829	85.117844	1233.785767	1361.286499	-236.397324	1146.745239	1385.420654	-72.314247	1299.273560	1298.552856	-64.707916	1217.054443	996.035645	187.016479	1220.140869	1034.068970	-347.312714	1276.808289	791.999664	226.916237	1327.094971	841.322662	-291.120163	1302.617920	946.520203	94.966286	1353.939331	951.896912	-196.296661	1109.096558	930.857605	-13.503356	1138.540405	931.481384	-156.816620	1123.818481	931.169495	-85.159988	1107.332642	1102.308350	-92.238800	1366.894897	1066.008057	-70.058167	1370.345703	570.621033	136.605972	1450.173950	471.092224	81.249832	1447.786743	292.431122	132.783722	1460.740234	87.366837	74.179970	1418.676025	60.387016	23.330633	1598.183960	73.363037	60.557701	1346.656738	573.051086	-226.733795	1299.592896	453.314972	-161.550903	1230.149780	244.153214	-198.591446	1139.938721	68.809517	-127.244629	1089.175415	59.214622	-76.871017	1271.660034	40.337936	-108.402328
444	4.43000000	1222.567383	1342.087524	86.013527	1238.413452	1360.441650	-235.589661	1151.563843	1384.531494	-71.412857	1304.267456	1297.908936	-63.936539	1221.258911	995.328247	188.116745	1225.024170	1033.222168	-346.475800	1280.402771	791.164581	228.315071	1332.081787	840.532379	-290.309006	1308.357422	945.984497	96.105492	1359.289307	951.358887	-196.083969	1114.889038	929.901245	-12.480247	1144.077148	930.622681	-155.858444	1129.483093	930.261963	-84.169345	1112.688354	1101.274780	-91.226776	1372.268555	1065.427612	-69.355873	1376.442505	570.006897	136.821091	1454.595093	469.589233	81.252693	1450.200806	290.694855	132.597549	1462.615967	85.626724	73.822037	1420.820679	59.056889	22.701021	1600.072876	71.250847	61.090031	1350.239258	572.118896	-225.941956	1301.787231	452.642029	-161.123627	1231.041504	243.926926	-198.301758	1140.065552	68.950157	-127.230858	1089.423218	59.315331	-76.766724	1271.641602	40.313110	-108.393242
445	4.44000000	1227.614014	1341.335571	86.961258	1243.017578	1359.577026	-234.740601	1156.397583	1383.629150	-70.439987	1309.293213	1297.273315	-63.117340	1225.630493	994.606689	189.256638	1229.910156	1032.357666	-345.581360	1284.230591	790.338440	229.737343	1337.184204	839.755829	-289.465118	1314.221558	945.411194	97.268761	1364.766968	950.728821	-195.730301	1120.772583	928.934204	-11.432164	1149.702881	929.697632	-154.875992	1135.237732	929.315918	-83.154078	1118.153076	1100.184448	-90.159485	1377.732422	1064.853638	-68.555771	1382.283813	569.351135	137.008118	1458.729248	467.989532	81.437439	1452.069458	288.860260	132.439606	1463.953613	83.835243	73.521866	1422.394531	57.807312	22.103062	1601.398438	68.791832	61.771057	1353.819946	571.166382	-225.106918	1303.970947	451.984009	-160.650665	1231.935425	243.699692	-197.974960	1140.182495	69.108620	-127.198769	1089.503174	59.549774	-76.601280	1271.615479	40.268360	-108.383621
446	4.45000000	1232.697388	1340.570435	87.955788	1247.604126	1358.705078	-233.859161	1161.246460	1382.721191	-69.398064	1314.351318	1296.657593	-62.252056	1230.179443	993.877869	190.442230	1234.791748	1031.481812	-344.624725	1288.294495	789.526825	231.186615	1342.404053	839.000336	-288.578476	1320.213257	944.808350	98.418854	1370.367065	950.009644	-195.216385	1126.722412	927.985779	-10.369327	1155.411377	928.700317	-153.875610	1141.066895	928.343048	-82.122468	1123.692871	1099.065186	-89.042473	1383.291260	1064.304810	-67.665268	1387.741577	568.655579	137.171616	1462.595215	466.376282	81.840309	1453.525146	287.031250	132.328995	1464.950684	82.097107	73.299179	1423.563965	56.734097	21.595293	1602.358887	66.066032	62.548592	1357.383057	570.201111	-224.222626	1306.157593	451.341248	-160.111755	1232.839478	243.485474	-197.610657	1140.292603	69.285492	-127.142006	1089.468140	59.888927	-76.388878	1271.592163	40.214516	-108.375511
447	4.46000000	1237.811279	1339.797485	88.989296	1252.186646	1357.844849	-232.954941	1166.112793	1381.815918	-68.300308	1319.442017	1296.074585	-61.344250	1234.909424	993.149353	191.671829	1239.672241	1030.605103	-343.603058	1292.590637	788.737183	232.662193	1347.738281	838.278137	-287.640961	1326.332642	944.198181	99.522583	1376.077637	949.206543	-194.525391	1132.704834	927.099365	-9.300411	1161.197266	927.644287	-152.863846	1146.951050	927.371826	-81.082129	1129.271118	1097.957397	-87.884872	1388.947876	1063.803589	-66.694267	1392.697998	567.927246	137.324066	1466.273560	464.864594	82.487923	1454.753784	285.336334	132.296417	1465.795044	80.524460	73.168938	1424.495972	55.934559	21.225246	1603.144775	63.191425	63.364414	1360.931519	569.229004	-223.269745	1308.365967	450.710480	-159.484467	1233.766479	243.301712	-197.208466	1140.402954	69.483353	-127.055809	1089.392090	60.288456	-76.160706	1271.581665	40.165115	-108.372391
448	4.47000000	1242.951050	1339.028931	90.051048	1256.786011	1357.021484	-232.036713	1171.003418	1380.926147	-67.167892	1324.565430	1295.536621	-60.398548	1239.818970	992.434692	192.937088	1244.565674	1029.743164	-342.522308	1297.113831	787.981293	234.160522	1353.170105	837.601105	-286.655060	1332.570923	943.614624	100.552101	1381.882446	948.324707	-193.641449	1138.683960	926.321289	-8.231523	1167.053833	926.558228	-151.849594	1152.868896	926.439758	-80.040558	1134.862061	1096.905029	-86.701866	1394.701172	1063.373901	-65.656097	1397.080933	567.182739	137.493607	1469.914917	463.583466	83.387039	1456.014404	283.895874	132.382217	1466.638916	79.210190	73.136749	1425.334961	55.472816	21.018539	1603.912354	60.317642	64.155685	1364.486938	568.253113	-222.219940	1310.618042	450.088348	-158.748566	1234.733276	243.164154	-196.764191	1140.520264	69.704323	-126.935005	1089.328491	60.723396	-75.945122	1271.589355	40.127384	-108.373711
449	4.48000000	1248.113159	1338.281494	91.127380	1261.428833	1356.262329	-231.111237	1175.929565	1380.067383	-66.026657	1329.723022	1295.052734	-59.420811	1244.905151	991.755371	194.223831	1249.491699	1028.913574	-341.396667	1301.859924	787.275513	235.675499	1358.654175	836.972198	-285.637100	1338.903809	943.096436	101.489166	1387.762451	947.370544	-192.549149	1144.628540	925.682617	-7.166217	1172.973389	925.480042	-150.845444	1158.800964	925.581329	-79.005830	1140.454468	1095.942261	-85.516579	1400.542603	1063.038574	-64.568405	1400.914185	566.452271	137.733109	1473.721558	462.636200	84.515648	1457.627441	282.778381	132.631546	1467.579956	78.202728	73.195015	1426.180054	55.351593	20.972397	1604.757324	57.596001	64.862335	1368.084717	567.274231	-221.044342	1312.935059	449.472015	-157.891388	1235.755005	243.083176	-196.269684	1140.650024	69.949654	-126.774529	1089.305054	61.187645	-75.751472	1271.616821	40.103439	-108.375244
450	4.49000000	1253.292847	1337.571777	92.202339	1266.145630	1355.588745	-230.182220	1180.900757	1379.249268	-64.902893	1334.916504	1294.625244	-58.418060	1250.159912	991.130676	195.509308	1254.467529	1028.134399	-340.242401	1306.826599	786.637390	237.197868	1364.122314	836.383789	-284.611420	1345.286987	942.678223	102.330292	1393.698242	946.353516	-191.234055	1150.518799	925.185913	-6.107094	1178.950195	924.445007	-149.864639	1164.734497	924.815460	-77.985867	1146.048462	1095.085083	-84.357269	1406.457153	1062.814941	-63.450340	1404.370850	565.786438	138.123245	1477.901123	462.051788	85.823357	1459.920288	281.970612	133.083115	1468.652710	77.495415	73.323029	1427.076050	55.514008	21.056591	1605.710083	55.136925	65.443306	1371.767090	566.291565	-219.721039	1315.333374	448.859253	-156.913101	1236.841797	243.064117	-195.718658	1140.795532	70.222816	-126.569878	1089.335327	61.682693	-75.566338	1271.664062	40.092663	-108.371391
451	4.50000000	1258.484253	1336.914429	93.260414	1270.967041	1355.009644	-229.250366	1185.920288	1378.471313	-63.816685	1340.146362	1294.249390	-57.397469	1255.568237	990.571411	196.768433	1259.502563	1027.424438	-339.074310	1312.012390	786.080200	238.716026	1369.511414	835.824707	-283.600403	1351.662720	942.382202	103.088676	1399.672119	945.286438	-189.685684	1156.350220	924.808655	-5.057503	1184.986206	923.469788	-148.913620	1170.668213	924.139221	-76.985561	1151.649658	1094.329834	-83.249634	1412.425903	1062.709961	-62.317787	1407.788452	565.260071	138.765305	1482.601807	461.759399	87.244812	1463.138428	281.385590	133.752609	1469.835693	77.034218	73.491180	1428.026001	55.872372	21.222748	1606.753784	52.989254	65.889389	1375.570557	565.304321	-218.242905	1317.820923	448.250122	-155.829178	1237.994019	243.109970	-195.112671	1140.959229	70.534698	-126.316002	1089.428711	62.215660	-75.360382	1271.727417	40.090153	-108.354935
452	4.51000000	1263.676636	1336.317993	94.291008	1275.918945	1354.520874	-228.314331	1190.986572	1377.729858	-62.779984	1345.413208	1293.916260	-56.365360	1261.116333	990.082336	197.988800	1264.601074	1026.800659	-337.908752	1317.420349	785.611572	240.220238	1374.796936	835.295471	-282.612579	1357.975830	942.214905	103.792313	1405.668579	944.185303	-187.903336	1162.131226	924.520203	-4.019982	1191.086182	922.550476	-147.984268	1176.608704	923.535339	-76.002125	1157.267090	1093.654663	-82.209381	1418.427490	1062.715576	-61.181664	1411.611084	564.957642	139.763489	1487.864014	461.610596	88.718559	1467.355225	280.900146	134.619537	1471.075317	76.740143	73.668083	1429.011230	56.342106	21.417799	1607.848022	51.156387	66.219460	1379.511108	564.314209	-216.625504	1320.397095	447.649872	-154.668015	1239.200684	243.223404	-194.461716	1141.141724	70.904228	-126.004677	1089.590942	62.803726	-75.098984	1271.800659	40.087551	-108.316360
453	4.52000000	1268.856934	1335.782837	95.290894	1281.018066	1354.108887	-227.372971	1196.099243	1377.026855	-61.799686	1350.718018	1293.617432	-55.326923	1266.795654	989.663757	199.176941	1269.766357	1026.274292	-336.765778	1323.063171	785.235901	241.707214	1380.011108	834.817780	-281.634506	1364.193481	942.170898	104.479355	1411.675537	943.068481	-185.903183	1167.876221	924.296509	-2.992077	1197.246826	921.675232	-147.051743	1182.561523	922.985870	-75.021910	1162.910645	1093.027222	-81.240540	1424.440186	1062.808960	-60.049484	1416.265869	564.938538	141.198883	1493.607666	461.437866	90.198868	1472.422485	280.400787	135.625870	1472.317505	76.537720	73.828819	1430.005493	56.862064	21.594820	1608.945435	49.623661	66.463684	1383.573120	563.331604	-214.908051	1323.054565	447.071106	-153.464951	1240.442139	243.406845	-193.778824	1141.340698	71.353661	-125.622330	1089.825562	63.474712	-74.749077	1271.878540	40.077557	-108.245216
